<svg width="37" height="37" viewBox="0 0 37 37" fill="none" xmlns="http://www.w3.org/2000/svg">
<path fill-rule="evenodd" clip-rule="evenodd" d="M9.00575 18.5C9.00575 13.2533 13.1131 9.00001 18.1798 9.00001C23.2464 9.00001 27.3537 13.2533 27.3537 18.5C27.3537 23.7467 23.2464 28 18.1798 28C13.1131 28 9.00575 23.7467 9.00575 18.5ZM18.1798 24.6667C14.8908 24.6667 12.2247 21.9058 12.2247 18.5C12.2247 15.0942 14.8908 12.3333 18.1798 12.3333C21.4686 12.3333 24.1348 15.0942 24.1348 18.5C24.1348 21.9058 21.4686 24.6667 18.1798 24.6667Z" fill="url(#paint0_linear_2_149)"/>
<path fill-rule="evenodd" clip-rule="evenodd" d="M9.00575 18.5C9.00575 13.2533 13.1131 9.00001 18.1798 9.00001C23.2464 9.00001 27.3537 13.2533 27.3537 18.5C27.3537 23.7467 23.2464 28 18.1798 28C13.1131 28 9.00575 23.7467 9.00575 18.5ZM18.1798 24.6667C14.8908 24.6667 12.2247 21.9058 12.2247 18.5C12.2247 15.0942 14.8908 12.3333 18.1798 12.3333C21.4686 12.3333 24.1348 15.0942 24.1348 18.5C24.1348 21.9058 21.4686 24.6667 18.1798 24.6667Z" fill="url(#paint1_radial_2_149)"/>
<path d="M27.7162 10.8446C28.9002 10.8446 29.8601 9.85076 29.8601 8.62468C29.8601 7.39859 28.9002 6.40464 27.7162 6.40464C26.5323 6.40464 25.5724 7.39859 25.5724 8.62468C25.5724 9.85076 26.5323 10.8446 27.7162 10.8446Z" fill="url(#paint2_linear_2_149)"/>
<path d="M27.7162 10.8446C28.9002 10.8446 29.8601 9.85076 29.8601 8.62468C29.8601 7.39859 28.9002 6.40464 27.7162 6.40464C26.5323 6.40464 25.5724 7.39859 25.5724 8.62468C25.5724 9.85076 26.5323 10.8446 27.7162 10.8446Z" fill="url(#paint3_radial_2_149)"/>
<path fill-rule="evenodd" clip-rule="evenodd" d="M18.1798 0C13.3279 0 12.7195 0.0212964 10.814 0.111329C8.91242 0.201141 7.61374 0.513904 6.47738 0.971263C5.30259 1.44397 4.30629 2.07655 3.31304 3.10502C2.31986 4.13356 1.70899 5.16526 1.25251 6.3818C0.810845 7.55853 0.508814 8.90336 0.422084 10.8725C0.335141 12.8457 0.314575 13.4757 0.314575 18.5C0.314575 23.5243 0.335141 24.1543 0.422084 26.1275C0.508814 28.0966 0.810845 29.4415 1.25251 30.6182C1.70899 31.8347 2.31986 32.8664 3.31304 33.895C4.30629 34.9235 5.30259 35.556 6.47738 36.0288C7.61374 36.4861 8.91242 36.7989 10.814 36.8887C12.7195 36.9787 13.3279 37 18.1798 37C23.0316 37 23.64 36.9787 25.5455 36.8887C27.4471 36.7989 28.7458 36.4861 29.8821 36.0288C31.0569 35.556 32.0532 34.9235 33.0464 33.895C34.0396 32.8664 34.6505 31.8347 35.1071 30.6182C35.5486 29.4415 35.8507 28.0966 35.9374 26.1275C36.0243 24.1543 36.0449 23.5243 36.0449 18.5C36.0449 13.4757 36.0243 12.8457 35.9374 10.8725C35.8507 8.90336 35.5486 7.55853 35.1071 6.3818C34.6505 5.16526 34.0396 4.13356 33.0464 3.10502C32.0532 2.07655 31.0569 1.44397 29.8821 0.971263C28.7458 0.513904 27.4471 0.201141 25.5455 0.111329C23.64 0.0212964 23.0316 0 18.1798 0ZM18.1798 3.33333C22.9499 3.33333 23.515 3.3522 25.3988 3.4412C27.1406 3.52345 28.0866 3.82483 28.7161 4.07819C29.55 4.41379 30.1451 4.81468 30.7703 5.46209C31.3955 6.10942 31.7826 6.7257 32.1067 7.58923C32.3513 8.24112 32.6424 9.22068 32.7218 11.0244C32.8077 12.9752 32.826 13.5603 32.826 18.5C32.826 23.4397 32.8077 24.0248 32.7218 25.9756C32.6424 27.7793 32.3513 28.7589 32.1067 29.4108C31.7826 30.2743 31.3955 30.8906 30.7703 31.5379C30.1451 32.1853 29.55 32.5862 28.7161 32.9218C28.0866 33.1752 27.1406 33.4765 25.3988 33.5588C23.5153 33.6478 22.9503 33.6667 18.1798 33.6667C13.4092 33.6667 12.8443 33.6478 10.9607 33.5588C9.21885 33.4765 8.2729 33.1752 7.64338 32.9218C6.80948 32.5862 6.21436 32.1853 5.58923 31.5379C4.96411 30.8906 4.57691 30.2743 4.25282 29.4108C4.00816 28.7589 3.71712 27.7793 3.6377 25.9756C3.55175 24.0248 3.53352 23.4397 3.53352 18.5C3.53352 13.5603 3.55175 12.9752 3.6377 11.0244C3.71712 9.22068 4.00816 8.24112 4.25282 7.58923C4.57691 6.7257 4.96404 6.10942 5.58923 5.46209C6.21436 4.81468 6.80948 4.41379 7.64338 4.07819C8.2729 3.82483 9.21885 3.52345 10.9607 3.4412C12.8445 3.3522 13.4096 3.33333 18.1798 3.33333Z" fill="url(#paint4_linear_2_149)"/>
<path fill-rule="evenodd" clip-rule="evenodd" d="M18.1798 0C13.3279 0 12.7195 0.0212964 10.814 0.111329C8.91242 0.201141 7.61374 0.513904 6.47738 0.971263C5.30259 1.44397 4.30629 2.07655 3.31304 3.10502C2.31986 4.13356 1.70899 5.16526 1.25251 6.3818C0.810845 7.55853 0.508814 8.90336 0.422084 10.8725C0.335141 12.8457 0.314575 13.4757 0.314575 18.5C0.314575 23.5243 0.335141 24.1543 0.422084 26.1275C0.508814 28.0966 0.810845 29.4415 1.25251 30.6182C1.70899 31.8347 2.31986 32.8664 3.31304 33.895C4.30629 34.9235 5.30259 35.556 6.47738 36.0288C7.61374 36.4861 8.91242 36.7989 10.814 36.8887C12.7195 36.9787 13.3279 37 18.1798 37C23.0316 37 23.64 36.9787 25.5455 36.8887C27.4471 36.7989 28.7458 36.4861 29.8821 36.0288C31.0569 35.556 32.0532 34.9235 33.0464 33.895C34.0396 32.8664 34.6505 31.8347 35.1071 30.6182C35.5486 29.4415 35.8507 28.0966 35.9374 26.1275C36.0243 24.1543 36.0449 23.5243 36.0449 18.5C36.0449 13.4757 36.0243 12.8457 35.9374 10.8725C35.8507 8.90336 35.5486 7.55853 35.1071 6.3818C34.6505 5.16526 34.0396 4.13356 33.0464 3.10502C32.0532 2.07655 31.0569 1.44397 29.8821 0.971263C28.7458 0.513904 27.4471 0.201141 25.5455 0.111329C23.64 0.0212964 23.0316 0 18.1798 0ZM18.1798 3.33333C22.9499 3.33333 23.515 3.3522 25.3988 3.4412C27.1406 3.52345 28.0866 3.82483 28.7161 4.07819C29.55 4.41379 30.1451 4.81468 30.7703 5.46209C31.3955 6.10942 31.7826 6.7257 32.1067 7.58923C32.3513 8.24112 32.6424 9.22068 32.7218 11.0244C32.8077 12.9752 32.826 13.5603 32.826 18.5C32.826 23.4397 32.8077 24.0248 32.7218 25.9756C32.6424 27.7793 32.3513 28.7589 32.1067 29.4108C31.7826 30.2743 31.3955 30.8906 30.7703 31.5379C30.1451 32.1853 29.55 32.5862 28.7161 32.9218C28.0866 33.1752 27.1406 33.4765 25.3988 33.5588C23.5153 33.6478 22.9503 33.6667 18.1798 33.6667C13.4092 33.6667 12.8443 33.6478 10.9607 33.5588C9.21885 33.4765 8.2729 33.1752 7.64338 32.9218C6.80948 32.5862 6.21436 32.1853 5.58923 31.5379C4.96411 30.8906 4.57691 30.2743 4.25282 29.4108C4.00816 28.7589 3.71712 27.7793 3.6377 25.9756C3.55175 24.0248 3.53352 23.4397 3.53352 18.5C3.53352 13.5603 3.55175 12.9752 3.6377 11.0244C3.71712 9.22068 4.00816 8.24112 4.25282 7.58923C4.57691 6.7257 4.96404 6.10942 5.58923 5.46209C6.21436 4.81468 6.80948 4.41379 7.64338 4.07819C8.2729 3.82483 9.21885 3.52345 10.9607 3.4412C12.8445 3.3522 13.4096 3.33333 18.1798 3.33333Z" fill="url(#paint5_radial_2_149)"/>
<defs>
<linearGradient id="paint0_linear_2_149" x1="2.39933" y1="1.9452" x2="14.4251" y2="46.8663" gradientUnits="userSpaceOnUse">
<stop stop-color="#4E60D3"/>
<stop offset="0.142763" stop-color="#913BAF"/>
<stop offset="0.761458" stop-color="#D52D88"/>
<stop offset="1" stop-color="#F26D4F"/>
</linearGradient>
<radialGradient id="paint1_radial_2_149" cx="0" cy="0" r="1" gradientUnits="userSpaceOnUse" gradientTransform="translate(11.1317 37) rotate(33.0683) scale(33.7104 24.6179)">
<stop stop-color="#FED276"/>
<stop offset="0.17024" stop-color="#FDBD61" stop-opacity="0.975006"/>
<stop offset="0.454081" stop-color="#F6804D"/>
<stop offset="1" stop-color="#E83D5C" stop-opacity="0.01"/>
</radialGradient>
<linearGradient id="paint2_linear_2_149" x1="2.39933" y1="1.9452" x2="14.4251" y2="46.8663" gradientUnits="userSpaceOnUse">
<stop stop-color="#4E60D3"/>
<stop offset="0.142763" stop-color="#913BAF"/>
<stop offset="0.761458" stop-color="#D52D88"/>
<stop offset="1" stop-color="#F26D4F"/>
</linearGradient>
<radialGradient id="paint3_radial_2_149" cx="0" cy="0" r="1" gradientUnits="userSpaceOnUse" gradientTransform="translate(11.1317 37) rotate(33.0683) scale(33.7104 24.6179)">
<stop stop-color="#FED276"/>
<stop offset="0.17024" stop-color="#FDBD61" stop-opacity="0.975006"/>
<stop offset="0.454081" stop-color="#F6804D"/>
<stop offset="1" stop-color="#E83D5C" stop-opacity="0.01"/>
</radialGradient>
<linearGradient id="paint4_linear_2_149" x1="2.39933" y1="1.9452" x2="14.4251" y2="46.8663" gradientUnits="userSpaceOnUse">
<stop stop-color="#4E60D3"/>
<stop offset="0.142763" stop-color="#913BAF"/>
<stop offset="0.761458" stop-color="#D52D88"/>
<stop offset="1" stop-color="#F26D4F"/>
</linearGradient>
<radialGradient id="paint5_radial_2_149" cx="0" cy="0" r="1" gradientUnits="userSpaceOnUse" gradientTransform="translate(11.1317 37) rotate(33.0683) scale(33.7104 24.6179)">
<stop stop-color="#FED276"/>
<stop offset="0.17024" stop-color="#FDBD61" stop-opacity="0.975006"/>
<stop offset="0.454081" stop-color="#F6804D"/>
<stop offset="1" stop-color="#E83D5C" stop-opacity="0.01"/>
</radialGradient>
</defs>
</svg>
