<svg width="36" height="37" viewBox="0 0 36 37" fill="none" xmlns="http://www.w3.org/2000/svg">
<path d="M33.3624 0H2.90725C2.20771 0 1.53683 0.287764 1.04219 0.799985C0.547542 1.31221 0.269653 2.00693 0.269653 2.73132V34.2687C0.269653 34.9931 0.547542 35.6878 1.04219 36.2C1.53683 36.7122 2.20771 37 2.90725 37H33.3624C34.0619 37 34.7328 36.7122 35.2275 36.2C35.7221 35.6878 36 34.9931 36 34.2687V2.73132C36 2.00693 35.7221 1.31221 35.2275 0.799985C34.7328 0.287764 34.0619 0 33.3624 0ZM10.9193 31.5194H5.54732V13.8493H10.9193V31.5194ZM8.22958 11.4006C7.62022 11.3971 7.02554 11.2067 6.52058 10.8535C6.01562 10.5003 5.62301 10.0001 5.39231 9.41602C5.16161 8.83197 5.10315 8.19025 5.22431 7.57183C5.34547 6.95341 5.64082 6.38601 6.07309 5.94125C6.50535 5.49648 7.05516 5.19429 7.65313 5.07279C8.25109 4.9513 8.87041 5.01596 9.43293 5.2586C9.99544 5.50125 10.4759 5.91101 10.8138 6.43617C11.1516 6.96133 11.3317 7.57836 11.3312 8.20938C11.3369 8.63184 11.2605 9.05119 11.1064 9.44241C10.9523 9.83363 10.7237 10.1887 10.4343 10.4865C10.1449 10.7843 9.8005 11.0187 9.42172 11.1758C9.04294 11.3328 8.63751 11.4093 8.22958 11.4006ZM30.7198 31.5348H25.3504V21.8814C25.3504 19.0344 24.1817 18.1557 22.6731 18.1557C21.0801 18.1557 19.5169 19.3993 19.5169 21.9533V31.5348H14.1449V13.8622H19.3109V16.3108H19.3804C19.899 15.224 21.7153 13.3663 24.4869 13.3663C27.4843 13.3663 30.7223 15.2085 30.7223 20.6044L30.7198 31.5348Z" fill="#0A66C2"/>
</svg>
