<svg width="332" height="134" viewBox="0 0 332 134" fill="none" xmlns="http://www.w3.org/2000/svg">
<path d="M92.7001 57.0737H73.8914V83.588H77.9218V115.684L92.7001 105.916V57.0737Z" fill="white"/>
<path d="M98.074 101.733V18H116.883V89.8202L98.074 101.733Z" fill="url(#paint0_linear_12_97)"/>
<path d="M49.7087 96.1474V35.0947H68.5174V86.3789L49.7087 96.1474Z" fill="url(#paint1_linear_12_97)"/>
<path d="M25.5261 108.358V57.0737H44.3348V98.5895L25.5261 108.358Z" fill="white"/>
<path d="M73.8913 86.379L0 123.011C0 125.867 1.97698 128.344 4.76281 128.977L5.37391 129.116L65.8304 99.8106V134L142.409 85.1579L147.783 91.2632L154.5 74.1685H131.661L137.035 80.2737L73.8913 120.568V86.379Z" fill="white"/>
<path d="M167.096 18.8H181.4L192.344 86H181.784L179.864 72.656V72.848H167.864L165.944 86H156.152L167.096 18.8ZM178.616 63.728L173.912 30.512H173.72L169.112 63.728H178.616ZM201.317 28.4H190.277V18.8H222.917V28.4H211.877V86H201.317V28.4ZM228.03 18.8H238.59V76.4H255.966V86H228.03V18.8ZM269.565 18.8H283.869L294.813 86H284.253L282.333 72.656V72.848H270.333L268.413 86H258.621L269.565 18.8ZM281.085 63.728L276.381 30.512H276.189L271.581 63.728H281.085ZM313.383 86.96C308.263 86.96 304.391 85.52 301.767 82.64C299.143 79.696 297.831 75.504 297.831 70.064V66.224H307.815V70.832C307.815 75.184 309.639 77.36 313.287 77.36C315.079 77.36 316.423 76.848 317.319 75.824C318.279 74.736 318.759 73.008 318.759 70.64C318.759 67.824 318.119 65.36 316.839 63.248C315.559 61.072 313.191 58.48 309.735 55.472C305.383 51.632 302.343 48.176 300.615 45.104C298.887 41.968 298.023 38.448 298.023 34.544C298.023 29.232 299.367 25.136 302.055 22.256C304.743 19.312 308.647 17.84 313.767 17.84C318.823 17.84 322.631 19.312 325.191 22.256C327.815 25.136 329.127 29.296 329.127 34.736V37.52H319.143V34.064C319.143 31.76 318.695 30.096 317.799 29.072C316.903 27.984 315.591 27.44 313.863 27.44C310.343 27.44 308.583 29.584 308.583 33.872C308.583 36.304 309.223 38.576 310.503 40.688C311.847 42.8 314.247 45.36 317.703 48.368C322.119 52.208 325.159 55.696 326.823 58.832C328.487 61.968 329.319 65.648 329.319 69.872C329.319 75.376 327.943 79.6 325.191 82.544C322.503 85.488 318.567 86.96 313.383 86.96Z" fill="white"/>
<line x1="156.5" y1="93.5" x2="330.5" y2="93.5017" stroke="url(#paint2_linear_12_97)" stroke-width="3" stroke-linecap="round" stroke-dasharray="1 4"/>
<path d="M166.258 111.026H168.32C168.213 112.015 167.93 112.899 167.472 113.68C167.013 114.46 166.365 115.08 165.527 115.538C164.689 115.989 163.644 116.215 162.391 116.215C161.474 116.215 160.64 116.043 159.888 115.699C159.143 115.355 158.502 114.868 157.965 114.238C157.428 113.601 157.012 112.838 156.719 111.95C156.432 111.055 156.289 110.06 156.289 108.964V107.406C156.289 106.311 156.432 105.319 156.719 104.431C157.012 103.535 157.431 102.769 157.976 102.132C158.527 101.494 159.189 101.004 159.963 100.66C160.736 100.316 161.606 100.145 162.573 100.145C163.755 100.145 164.754 100.367 165.57 100.811C166.387 101.255 167.021 101.87 167.472 102.658C167.93 103.439 168.213 104.345 168.32 105.376H166.258C166.158 104.646 165.971 104.019 165.699 103.496C165.427 102.966 165.04 102.558 164.539 102.271C164.038 101.985 163.382 101.842 162.573 101.842C161.879 101.842 161.266 101.974 160.736 102.239C160.214 102.504 159.773 102.88 159.415 103.367C159.064 103.854 158.799 104.438 158.62 105.118C158.441 105.799 158.352 106.554 158.352 107.385V108.964C158.352 109.73 158.43 110.45 158.588 111.123C158.753 111.796 159 112.387 159.329 112.896C159.659 113.404 160.077 113.805 160.586 114.099C161.094 114.385 161.696 114.528 162.391 114.528C163.271 114.528 163.973 114.389 164.496 114.109C165.019 113.83 165.413 113.429 165.678 112.906C165.95 112.383 166.143 111.757 166.258 111.026ZM170.318 110.317V110.07C170.318 109.232 170.44 108.455 170.684 107.739C170.927 107.016 171.278 106.389 171.736 105.859C172.195 105.322 172.75 104.907 173.401 104.613C174.053 104.312 174.784 104.162 175.593 104.162C176.409 104.162 177.143 104.312 177.795 104.613C178.454 104.907 179.012 105.322 179.471 105.859C179.936 106.389 180.291 107.016 180.534 107.739C180.778 108.455 180.899 109.232 180.899 110.07V110.317C180.899 111.155 180.778 111.932 180.534 112.648C180.291 113.365 179.936 113.991 179.471 114.528C179.012 115.058 178.457 115.474 177.806 115.774C177.161 116.068 176.431 116.215 175.614 116.215C174.798 116.215 174.064 116.068 173.412 115.774C172.76 115.474 172.202 115.058 171.736 114.528C171.278 113.991 170.927 113.365 170.684 112.648C170.44 111.932 170.318 111.155 170.318 110.317ZM172.306 110.07V110.317C172.306 110.897 172.374 111.445 172.51 111.961C172.646 112.469 172.85 112.921 173.122 113.314C173.401 113.708 173.749 114.02 174.164 114.249C174.579 114.471 175.063 114.582 175.614 114.582C176.159 114.582 176.635 114.471 177.043 114.249C177.458 114.02 177.802 113.708 178.074 113.314C178.346 112.921 178.55 112.469 178.687 111.961C178.83 111.445 178.901 110.897 178.901 110.317V110.07C178.901 109.497 178.83 108.957 178.687 108.448C178.55 107.933 178.343 107.478 178.063 107.084C177.791 106.683 177.448 106.368 177.032 106.139C176.624 105.91 176.144 105.795 175.593 105.795C175.049 105.795 174.569 105.91 174.153 106.139C173.745 106.368 173.401 106.683 173.122 107.084C172.85 107.478 172.646 107.933 172.51 108.448C172.374 108.957 172.306 109.497 172.306 110.07ZM185.379 106.858V116H183.392V104.377H185.271L185.379 106.858ZM184.906 109.748L184.079 109.716C184.086 108.921 184.204 108.187 184.434 107.514C184.663 106.833 184.985 106.243 185.4 105.741C185.816 105.24 186.31 104.853 186.883 104.581C187.463 104.302 188.104 104.162 188.806 104.162C189.379 104.162 189.894 104.241 190.353 104.398C190.811 104.549 191.201 104.792 191.523 105.129C191.853 105.465 192.104 105.902 192.275 106.439C192.447 106.969 192.533 107.618 192.533 108.384V116H190.535V108.362C190.535 107.754 190.446 107.267 190.267 106.901C190.088 106.529 189.826 106.26 189.482 106.096C189.139 105.924 188.716 105.838 188.215 105.838C187.721 105.838 187.27 105.942 186.861 106.149C186.46 106.357 186.113 106.644 185.819 107.009C185.533 107.374 185.307 107.793 185.143 108.266C184.985 108.731 184.906 109.225 184.906 109.748ZM202.319 112.917C202.319 112.631 202.255 112.366 202.126 112.122C202.004 111.871 201.75 111.646 201.363 111.445C200.984 111.238 200.411 111.059 199.645 110.908C199 110.772 198.416 110.611 197.894 110.425C197.378 110.239 196.938 110.013 196.572 109.748C196.214 109.483 195.938 109.172 195.745 108.813C195.552 108.455 195.455 108.036 195.455 107.557C195.455 107.098 195.555 106.665 195.756 106.257C195.964 105.849 196.254 105.487 196.626 105.172C197.006 104.857 197.46 104.61 197.99 104.431C198.52 104.252 199.111 104.162 199.763 104.162C200.694 104.162 201.489 104.327 202.147 104.656C202.806 104.986 203.311 105.426 203.662 105.978C204.013 106.522 204.188 107.127 204.188 107.793H202.201C202.201 107.471 202.104 107.159 201.911 106.858C201.725 106.55 201.449 106.296 201.084 106.096C200.726 105.895 200.285 105.795 199.763 105.795C199.211 105.795 198.764 105.881 198.42 106.053C198.083 106.217 197.836 106.429 197.679 106.687C197.528 106.944 197.453 107.216 197.453 107.503C197.453 107.718 197.489 107.911 197.561 108.083C197.639 108.248 197.775 108.402 197.969 108.545C198.162 108.681 198.434 108.81 198.785 108.932C199.136 109.053 199.584 109.175 200.128 109.297C201.08 109.512 201.865 109.77 202.48 110.07C203.096 110.371 203.555 110.74 203.855 111.177C204.156 111.614 204.307 112.144 204.307 112.767C204.307 113.275 204.199 113.741 203.984 114.163C203.777 114.586 203.472 114.951 203.071 115.259C202.677 115.56 202.205 115.796 201.653 115.968C201.109 116.132 200.497 116.215 199.816 116.215C198.792 116.215 197.926 116.032 197.217 115.667C196.508 115.302 195.971 114.829 195.605 114.249C195.24 113.669 195.058 113.057 195.058 112.412H197.056C197.084 112.956 197.242 113.39 197.528 113.712C197.815 114.027 198.166 114.253 198.581 114.389C198.996 114.518 199.408 114.582 199.816 114.582C200.361 114.582 200.815 114.51 201.181 114.367C201.553 114.224 201.836 114.027 202.029 113.776C202.223 113.526 202.319 113.239 202.319 112.917ZM214.028 113.314V104.377H216.026V116H214.125L214.028 113.314ZM214.404 110.865L215.231 110.844C215.231 111.617 215.149 112.333 214.984 112.992C214.827 113.644 214.569 114.21 214.211 114.689C213.853 115.169 213.384 115.545 212.804 115.817C212.224 116.082 211.518 116.215 210.688 116.215C210.122 116.215 209.603 116.132 209.13 115.968C208.664 115.803 208.263 115.549 207.927 115.205C207.59 114.861 207.329 114.414 207.143 113.862C206.964 113.311 206.874 112.648 206.874 111.875V104.377H208.861V111.896C208.861 112.419 208.919 112.853 209.033 113.196C209.155 113.533 209.316 113.801 209.517 114.002C209.724 114.195 209.953 114.331 210.204 114.41C210.462 114.489 210.727 114.528 210.999 114.528C211.844 114.528 212.514 114.367 213.008 114.045C213.502 113.715 213.856 113.275 214.071 112.724C214.293 112.165 214.404 111.546 214.404 110.865ZM221.215 99.5V116H219.217V99.5H221.215ZM229.271 104.377V105.902H222.987V104.377H229.271ZM225.114 101.552H227.102V113.121C227.102 113.515 227.162 113.812 227.284 114.013C227.406 114.213 227.563 114.346 227.757 114.41C227.95 114.475 228.158 114.507 228.38 114.507C228.545 114.507 228.716 114.493 228.896 114.464C229.082 114.428 229.221 114.399 229.314 114.378L229.325 116C229.168 116.05 228.96 116.097 228.702 116.14C228.451 116.19 228.147 116.215 227.789 116.215C227.302 116.215 226.854 116.118 226.446 115.925C226.038 115.731 225.712 115.409 225.469 114.958C225.232 114.5 225.114 113.884 225.114 113.11V101.552ZM230.861 110.317V110.07C230.861 109.232 230.983 108.455 231.227 107.739C231.47 107.016 231.821 106.389 232.279 105.859C232.738 105.322 233.293 104.907 233.944 104.613C234.596 104.312 235.326 104.162 236.136 104.162C236.952 104.162 237.686 104.312 238.338 104.613C238.997 104.907 239.555 105.322 240.014 105.859C240.479 106.389 240.834 107.016 241.077 107.739C241.321 108.455 241.442 109.232 241.442 110.07V110.317C241.442 111.155 241.321 111.932 241.077 112.648C240.834 113.365 240.479 113.991 240.014 114.528C239.555 115.058 239 115.474 238.349 115.774C237.704 116.068 236.974 116.215 236.157 116.215C235.341 116.215 234.607 116.068 233.955 115.774C233.303 115.474 232.745 115.058 232.279 114.528C231.821 113.991 231.47 113.365 231.227 112.648C230.983 111.932 230.861 111.155 230.861 110.317ZM232.849 110.07V110.317C232.849 110.897 232.917 111.445 233.053 111.961C233.189 112.469 233.393 112.921 233.665 113.314C233.944 113.708 234.292 114.02 234.707 114.249C235.122 114.471 235.606 114.582 236.157 114.582C236.701 114.582 237.178 114.471 237.586 114.249C238.001 114.02 238.345 113.708 238.617 113.314C238.889 112.921 239.093 112.469 239.229 111.961C239.373 111.445 239.444 110.897 239.444 110.317V110.07C239.444 109.497 239.373 108.957 239.229 108.448C239.093 107.933 238.886 107.478 238.606 107.084C238.334 106.683 237.991 106.368 237.575 106.139C237.167 105.91 236.687 105.795 236.136 105.795C235.591 105.795 235.112 105.91 234.696 106.139C234.288 106.368 233.944 106.683 233.665 107.084C233.393 107.478 233.189 107.933 233.053 108.448C232.917 108.957 232.849 109.497 232.849 110.07ZM245.922 106.203V116H243.935V104.377H245.868L245.922 106.203ZM249.553 104.312L249.542 106.16C249.377 106.124 249.22 106.103 249.069 106.096C248.926 106.081 248.761 106.074 248.575 106.074C248.117 106.074 247.712 106.146 247.361 106.289C247.01 106.432 246.713 106.633 246.47 106.891C246.226 107.148 246.033 107.456 245.89 107.814C245.754 108.165 245.664 108.552 245.621 108.975L245.062 109.297C245.062 108.595 245.131 107.936 245.267 107.32C245.41 106.704 245.628 106.16 245.922 105.688C246.215 105.208 246.588 104.835 247.039 104.57C247.497 104.298 248.042 104.162 248.672 104.162C248.815 104.162 248.98 104.18 249.166 104.216C249.352 104.244 249.481 104.277 249.553 104.312ZM253.549 104.377V116H251.551V104.377H253.549ZM251.4 101.294C251.4 100.972 251.497 100.7 251.69 100.478C251.891 100.256 252.185 100.145 252.571 100.145C252.951 100.145 253.241 100.256 253.441 100.478C253.649 100.7 253.753 100.972 253.753 101.294C253.753 101.602 253.649 101.867 253.441 102.089C253.241 102.304 252.951 102.411 252.571 102.411C252.185 102.411 251.891 102.304 251.69 102.089C251.497 101.867 251.4 101.602 251.4 101.294ZM263.593 114.013V108.029C263.593 107.571 263.5 107.174 263.313 106.837C263.134 106.493 262.862 106.228 262.497 106.042C262.132 105.856 261.681 105.763 261.144 105.763C260.642 105.763 260.202 105.849 259.822 106.021C259.45 106.192 259.156 106.418 258.941 106.697C258.734 106.977 258.63 107.277 258.63 107.6H256.643C256.643 107.184 256.75 106.772 256.965 106.364C257.18 105.956 257.488 105.587 257.889 105.258C258.297 104.921 258.784 104.656 259.35 104.463C259.923 104.262 260.56 104.162 261.262 104.162C262.107 104.162 262.852 104.305 263.496 104.592C264.148 104.878 264.656 105.312 265.021 105.892C265.394 106.465 265.58 107.184 265.58 108.051V113.465C265.58 113.852 265.612 114.263 265.677 114.7C265.748 115.137 265.852 115.513 265.988 115.828V116H263.915C263.815 115.771 263.736 115.466 263.679 115.087C263.621 114.7 263.593 114.342 263.593 114.013ZM263.937 108.953L263.958 110.35H261.949C261.383 110.35 260.879 110.396 260.435 110.489C259.991 110.575 259.618 110.708 259.317 110.887C259.017 111.066 258.787 111.291 258.63 111.563C258.472 111.828 258.394 112.14 258.394 112.498C258.394 112.863 258.476 113.196 258.641 113.497C258.805 113.798 259.052 114.038 259.382 114.217C259.718 114.389 260.13 114.475 260.617 114.475C261.226 114.475 261.763 114.346 262.229 114.088C262.694 113.83 263.063 113.515 263.335 113.143C263.614 112.77 263.765 112.409 263.786 112.058L264.635 113.014C264.585 113.314 264.449 113.647 264.227 114.013C264.005 114.378 263.707 114.729 263.335 115.065C262.97 115.395 262.533 115.671 262.024 115.893C261.523 116.107 260.957 116.215 260.327 116.215C259.539 116.215 258.848 116.061 258.254 115.753C257.667 115.445 257.208 115.033 256.879 114.518C256.557 113.995 256.396 113.411 256.396 112.767C256.396 112.144 256.517 111.596 256.761 111.123C257.004 110.643 257.355 110.246 257.813 109.931C258.272 109.608 258.823 109.365 259.468 109.2C260.112 109.035 260.832 108.953 261.627 108.953H263.937ZM281.489 113.744V99.5H283.487V116H281.661L281.489 113.744ZM273.669 110.317V110.092C273.669 109.204 273.776 108.398 273.991 107.675C274.213 106.944 274.525 106.318 274.926 105.795C275.334 105.272 275.817 104.871 276.376 104.592C276.942 104.305 277.572 104.162 278.267 104.162C278.997 104.162 279.634 104.291 280.179 104.549C280.73 104.799 281.196 105.168 281.575 105.655C281.962 106.135 282.266 106.715 282.488 107.396C282.71 108.076 282.864 108.846 282.95 109.705V110.693C282.871 111.546 282.717 112.312 282.488 112.992C282.266 113.673 281.962 114.253 281.575 114.732C281.196 115.212 280.73 115.581 280.179 115.839C279.627 116.09 278.983 116.215 278.245 116.215C277.565 116.215 276.942 116.068 276.376 115.774C275.817 115.481 275.334 115.069 274.926 114.539C274.525 114.009 274.213 113.386 273.991 112.67C273.776 111.947 273.669 111.162 273.669 110.317ZM275.667 110.092V110.317C275.667 110.897 275.724 111.442 275.839 111.95C275.961 112.459 276.147 112.906 276.397 113.293C276.648 113.68 276.967 113.984 277.354 114.206C277.74 114.421 278.202 114.528 278.739 114.528C279.398 114.528 279.939 114.389 280.361 114.109C280.791 113.83 281.135 113.461 281.393 113.003C281.65 112.545 281.851 112.047 281.994 111.51V108.921C281.908 108.527 281.783 108.147 281.618 107.782C281.461 107.41 281.253 107.08 280.995 106.794C280.744 106.5 280.433 106.268 280.061 106.096C279.695 105.924 279.262 105.838 278.761 105.838C278.216 105.838 277.747 105.952 277.354 106.182C276.967 106.404 276.648 106.712 276.397 107.105C276.147 107.492 275.961 107.943 275.839 108.459C275.724 108.967 275.667 109.512 275.667 110.092ZM291.404 116.215C290.595 116.215 289.861 116.079 289.202 115.807C288.55 115.527 287.988 115.137 287.516 114.636C287.05 114.134 286.692 113.54 286.441 112.853C286.191 112.165 286.065 111.413 286.065 110.597V110.146C286.065 109.2 286.205 108.359 286.484 107.621C286.764 106.876 287.143 106.246 287.623 105.73C288.103 105.215 288.647 104.825 289.256 104.56C289.865 104.295 290.495 104.162 291.146 104.162C291.977 104.162 292.693 104.305 293.295 104.592C293.904 104.878 294.401 105.279 294.788 105.795C295.175 106.303 295.461 106.905 295.647 107.6C295.834 108.287 295.927 109.039 295.927 109.855V110.747H287.247V109.125H293.939V108.975C293.911 108.459 293.803 107.958 293.617 107.471C293.438 106.984 293.152 106.583 292.758 106.268C292.364 105.952 291.827 105.795 291.146 105.795C290.695 105.795 290.28 105.892 289.9 106.085C289.521 106.271 289.195 106.55 288.923 106.923C288.651 107.295 288.439 107.75 288.289 108.287C288.139 108.824 288.063 109.444 288.063 110.146V110.597C288.063 111.148 288.139 111.667 288.289 112.154C288.447 112.634 288.672 113.057 288.966 113.422C289.267 113.787 289.628 114.074 290.051 114.281C290.48 114.489 290.967 114.593 291.512 114.593C292.214 114.593 292.808 114.45 293.295 114.163C293.782 113.877 294.208 113.493 294.573 113.014L295.776 113.97C295.526 114.349 295.207 114.711 294.82 115.055C294.434 115.398 293.957 115.678 293.392 115.893C292.833 116.107 292.171 116.215 291.404 116.215ZM304.005 100.359H309.183C310.357 100.359 311.349 100.538 312.158 100.896C312.975 101.255 313.594 101.785 314.017 102.486C314.446 103.181 314.661 104.037 314.661 105.054C314.661 105.77 314.514 106.425 314.221 107.02C313.934 107.607 313.519 108.108 312.975 108.523C312.438 108.932 311.793 109.236 311.041 109.437L310.461 109.662H305.595L305.573 107.976H309.247C309.992 107.976 310.611 107.847 311.105 107.589C311.6 107.324 311.972 106.969 312.223 106.525C312.473 106.081 312.599 105.591 312.599 105.054C312.599 104.452 312.48 103.926 312.244 103.475C312.008 103.023 311.635 102.676 311.127 102.433C310.626 102.182 309.978 102.057 309.183 102.057H306.078V116H304.005V100.359ZM313.146 116L309.344 108.91L311.503 108.899L315.359 115.871V116H313.146ZM327.777 107.084V108.771H319.312V107.084H327.777ZM319.635 100.359V116H317.562V100.359H319.635ZM329.582 100.359V116H327.52V100.359H329.582Z" fill="#B9B9B9"/>
<defs>
<linearGradient id="paint0_linear_12_97" x1="107.478" y1="18" x2="107.478" y2="101.733" gradientUnits="userSpaceOnUse">
<stop stop-color="#9E3939"/>
<stop offset="1" stop-color="#9E3939" stop-opacity="0"/>
</linearGradient>
<linearGradient id="paint1_linear_12_97" x1="59.113" y1="35.0947" x2="59.113" y2="96.1474" gradientUnits="userSpaceOnUse">
<stop stop-color="#9E3939"/>
<stop offset="1" stop-color="#9E3939" stop-opacity="0"/>
</linearGradient>
<linearGradient id="paint2_linear_12_97" x1="155" y1="94.9657" x2="332" y2="94.9987" gradientUnits="userSpaceOnUse">
<stop stop-color="#9E3939"/>
<stop offset="0.502264"/>
<stop offset="1" stop-color="#9E3939"/>
</linearGradient>
</defs>
</svg>
