<svg width="76" height="78" viewBox="0 0 76 78" fill="none" xmlns="http://www.w3.org/2000/svg">
<path d="M42.3352 51.0909V49.6314C45.8701 48.8128 48.5161 45.6049 48.5161 41.7805C48.5161 37.9561 45.8701 34.7484 42.3352 33.9296V25.3483C44.1648 25.9963 45.8351 27.4099 46.4542 28.052C47.1594 28.7885 48.3287 28.8154 49.0669 28.1109C49.8059 27.4057 49.833 26.2352 49.1281 25.4962C48.987 25.3481 46.055 22.3194 42.3352 21.5106V20.0571C42.3352 19.0355 41.5075 18.2078 40.4859 18.2078C39.4644 18.2078 38.6366 19.0355 38.6366 20.0571V21.5518C35.1769 22.4257 32.6054 25.5976 32.6054 29.3675C32.6054 33.1376 35.1769 36.3098 38.6366 37.1839V45.6216C36.8788 44.7739 35.1934 43.1081 34.5955 42.4016C33.9384 41.6195 32.7716 41.5184 31.9902 42.1753C31.2081 42.8321 31.1067 43.9987 31.7638 44.7806C32.134 45.2212 35.0477 48.5763 38.6366 49.5624V51.0906C38.6366 52.1122 39.4644 52.9399 40.4859 52.9399C41.5072 52.9402 42.3352 52.1122 42.3352 51.0909ZM44.8175 41.7805C44.8175 43.5341 43.7976 45.0454 42.3352 45.7355V37.8254C43.7976 38.5156 44.8175 40.0269 44.8175 41.7805ZM36.304 29.3677C36.304 27.6747 37.2546 26.2076 38.6366 25.4869V33.2493C37.2546 32.5285 36.304 31.0612 36.304 29.3677Z" fill="#A31616" stroke="#A31616" stroke-width="2.29713"/>
<path d="M36.9656 68.9614C37.0302 68.968 37.094 68.9715 37.1581 68.9715C37.6131 68.9715 38.0547 68.8036 38.3959 68.4961C38.7853 68.1455 39.0074 67.6462 39.0074 67.1222V56.4512C39.0074 55.5416 38.3459 54.7671 37.4474 54.6248C29.2024 53.3187 22.6145 46.624 21.4265 38.3438C21.296 37.4334 20.5159 36.7573 19.5959 36.7573H8.96757C8.4468 36.7573 7.9502 36.977 7.59957 37.3622C7.24919 37.7476 7.07733 38.2624 7.1264 38.781C8.62631 54.6159 21.1754 67.3086 36.9656 68.9614ZM18.0494 40.4557C18.9639 44.7121 21.0514 48.5796 24.1435 51.7187C27.2372 54.8593 31.0715 57.0033 35.3091 57.9758V64.9975C22.9 62.8175 13.1181 52.9148 11.0706 40.4559L18.0494 40.4557Z" fill="#A31616" stroke="#A31616" stroke-width="2.29713"/>
<path d="M9.93613 56.5378C9.41241 55.661 8.27694 55.3752 7.40037 55.8984C6.5233 56.4219 6.23728 57.5576 6.761 58.4342C6.80637 58.5104 6.85199 58.5861 6.89834 58.6618C7.24724 59.2321 7.85505 59.5465 8.47765 59.5465C8.80658 59.5465 9.13995 59.4589 9.44077 59.2745C10.3122 58.7414 10.5863 57.6032 10.0535 56.7318L9.93613 56.5378Z" fill="#A31616" stroke="#A31616" stroke-width="2.29713"/>
<path d="M4.0637 46.1188C5.07959 46.014 5.81807 45.1054 5.71328 44.0895L5.6906 43.8607C5.59492 42.8438 4.69468 42.0987 3.67609 42.1928C2.65921 42.2885 1.91259 43.1905 2.00826 44.2074L2.03415 44.4695C2.13228 45.4207 2.93513 46.1289 3.87137 46.1289C3.93474 46.1289 3.9991 46.1255 4.0637 46.1188Z" fill="#A31616" stroke="#A31616" stroke-width="2.29713"/>
<path d="M7.17841 50.636L7.1037 50.4171C6.77724 49.4498 5.72782 48.9297 4.76001 49.2562C3.79221 49.5827 3.27268 50.6321 3.59914 51.5999L3.68396 51.8477C3.94903 52.6123 4.66508 53.0917 5.43119 53.0917C5.6319 53.0917 5.83656 53.0586 6.03702 52.9891C7.00211 52.6547 7.51301 51.6009 7.17841 50.636Z" fill="#A31616" stroke="#A31616" stroke-width="2.29713"/>
<path d="M38.2537 72.3276L38.1464 72.3274C37.1249 72.3274 36.2971 73.1551 36.2971 74.1767C36.2971 75.1983 37.1249 76.026 38.1464 76.026L38.2246 76.0263C38.2295 76.0263 38.2345 76.0263 38.2394 76.0263C39.254 76.0263 40.0806 75.2079 40.0884 74.1915C40.0966 73.1699 39.275 72.3355 38.2537 72.3276Z" fill="#A31616" stroke="#A31616" stroke-width="2.29713"/>
<path d="M31.6381 71.7127L31.4034 71.6669C30.4013 71.4669 29.4286 72.1205 29.2306 73.1224C29.0323 74.1242 29.6843 75.0972 30.6861 75.2949L30.9354 75.3435C31.054 75.3667 31.1721 75.3775 31.2887 75.3775C32.1569 75.3775 32.9314 74.7633 33.1023 73.8794C33.2963 72.8765 32.6407 71.9065 31.6381 71.7127Z" fill="#A31616" stroke="#A31616" stroke-width="2.29713"/>
<path d="M25.1683 69.7702L24.9523 69.6787C24.0131 69.2788 22.9264 69.7147 22.5255 70.6539C22.1245 71.5934 22.5612 72.6798 23.5007 73.0807L23.7389 73.1813C23.9724 73.2792 24.2145 73.3255 24.4529 73.3255C25.1759 73.3255 25.8624 72.899 26.1592 72.1906C26.5542 71.2484 26.1104 70.1647 25.1683 69.7702Z" fill="#A31616" stroke="#A31616" stroke-width="2.29713"/>
<path d="M13.9846 61.9399C13.29 61.1914 12.1198 61.1477 11.3712 61.8423C10.6226 62.5369 10.5787 63.7071 11.2736 64.4557L11.4467 64.6417C11.8108 65.0308 12.3035 65.2275 12.7976 65.2275C13.2503 65.2275 13.704 65.0623 14.0606 64.7287C14.8065 64.0309 14.8454 62.8607 14.1476 62.1148L13.9846 61.9399Z" fill="#A31616" stroke="#A31616" stroke-width="2.29713"/>
<path d="M19.2514 66.523L19.0628 66.3911C18.2282 65.8018 17.0744 66.0008 16.4854 66.8352C15.8963 67.6696 16.095 68.8236 16.9294 69.4126L17.145 69.5633C17.4662 69.7857 17.8331 69.8927 18.1966 69.8927C18.7827 69.8927 19.3594 69.6146 19.7184 69.0963C20.2996 68.2567 20.0908 67.1047 19.2514 66.523Z" fill="#A31616" stroke="#A31616" stroke-width="2.29713"/>
<path d="M40.4859 2C31.9744 2 23.8604 5.20078 17.6384 11.013C11.4494 16.7942 7.69528 24.618 7.06701 33.0434C7.02879 33.5563 7.20583 34.062 7.55597 34.439C7.90585 34.8158 8.39703 35.0303 8.91138 35.0303H19.5158C20.457 35.0303 21.2482 34.3232 21.3535 33.3879C22.451 23.6319 30.6765 16.2752 40.4862 16.2752C51.1056 16.2752 59.7451 24.9326 59.7451 35.5743C59.7451 45.2444 52.5365 53.4691 42.9771 54.7055C42.0551 54.8248 41.365 55.6099 41.365 56.5397V67.1796C41.365 67.6977 41.5822 68.1916 41.9637 68.5417C42.3064 68.8561 42.7529 69.029 43.2143 69.029C43.2666 69.029 43.3193 69.0267 43.3721 69.0223C51.7048 68.3092 59.4287 64.5134 65.1212 58.3345C70.8468 52.1194 74 44.0364 74 35.5743C73.9998 17.0612 58.9654 2 40.4859 2ZM45.0633 65.0949V58.106C55.6495 55.9593 63.4435 46.5473 63.4435 35.5738C63.4435 22.8927 53.1446 12.5761 40.4859 12.5761C29.3489 12.5761 19.9251 20.5293 17.9219 31.3312H10.9708C13.0417 16.8048 25.6387 5.69861 40.4859 5.69861C56.9263 5.69861 70.3012 19.1007 70.3012 35.5738C70.3012 50.2748 59.3686 62.8676 45.0633 65.0949Z" fill="#A31616" stroke="#A31616" stroke-width="2.29713"/>
</svg>
