<svg width="72" height="70" viewBox="0 0 72 52" fill="none" xmlns="http://www.w3.org/2000/svg">
<path d="M58.8819 38.9448C62.5755 40.9675 64.6853 44.5711 64.4209 48.1747C64.2437 50.3717 64.1565 50.4617 61.3434 50.8134C59.5852 51.0778 48.5071 51.165 37.0802 51.165C24.1567 51.165 10.62 50.9006 9.65227 50.6362C5.78423 49.6684 7.89407 42.6356 12.9943 39.2965C16.9495 36.7478 25.0372 32.8797 27.2371 32.4381C30.2274 31.822 30.5791 29.9766 27.2371 23.9987C26.4466 22.6794 25.5661 18.6369 25.4789 14.4172C25.3917 7.55885 26.711 2.90033 32.6889 0.616073C33.9211 0.177226 35.1504 0 36.2925 0C40.2478 0 43.9414 2.19705 45.4352 5.45183C47.6322 9.75871 46.7545 21.2756 44.4674 25.4081C41.8287 30.0666 42.0932 31.5632 44.9963 32.3537C46.9317 32.8826 52.9096 35.6957 58.8875 38.9476L58.8819 38.9448ZM11.0588 36.3089C9.65227 37.2767 8.33292 38.506 7.278 39.7381C3.93601 39.7381 1.38733 39.6509 1.12289 39.5609C-1.07415 39.032 0.15518 34.9896 3.05832 33.2314C5.25537 31.8248 9.73948 29.6278 10.9716 29.3633C12.5554 29.0117 12.9071 28.044 10.9716 24.7048C10.5328 24.0015 10.0039 21.7145 10.0039 19.343C9.91671 15.475 10.7072 12.8363 14.0492 11.6941C16.8623 10.6392 20.0271 11.9586 21.1692 14.3328C22.3113 16.7943 21.6981 23.1238 20.4659 25.4109C19.0593 28.1368 19.3238 28.8401 20.9048 29.2789C21.2564 29.3662 21.9597 29.7178 22.9274 30.1595C19.0593 31.7432 13.7847 34.6436 11.0588 36.3146V36.3089ZM68.905 32.967C71.0149 34.1091 72.157 36.0445 71.9826 38.0671C71.8954 39.2993 71.8954 39.3865 70.3116 39.5609C69.8727 39.6481 67.8501 39.7381 65.2114 39.7381C64.0693 38.2444 62.4855 36.8378 60.5529 35.8701C56.9493 33.7603 52.5524 31.4732 49.3004 30.0666C50.1809 29.715 50.9714 29.4506 51.323 29.3633C52.994 29.0117 53.2584 28.044 51.323 24.7048C50.9714 24.0015 50.3553 21.7145 50.3553 19.343C50.2681 15.475 50.9714 12.8363 54.3106 11.6941C57.2109 10.6392 60.3756 11.9586 61.4306 14.3328C62.5727 16.7943 62.1338 23.1238 60.9017 25.4109C59.4951 28.1368 59.6695 28.8401 61.1661 29.2789C62.221 29.6306 65.563 31.2144 68.9022 32.9726L68.905 32.967Z" fill="#A31616"/>
</svg>
