<svg width="110" height="110" viewBox="0 0 110 110" fill="none" xmlns="http://www.w3.org/2000/svg">
<path d="M94.5312 5.15625H15.4688V104.844H94.5312V5.15625Z" fill="white"/>
<path d="M87.6562 12.0312H22.3438V97.9688H87.6562V12.0312Z" fill="#E6E6E6"/>
<path d="M22.3438 12.0312H87.6562V32.6562C87.6562 49.9782 80.7751 66.5907 68.5267 78.8392C56.2782 91.0876 39.6657 97.9687 22.3438 97.9688V12.0312Z" fill="white"/>
<path d="M55 36.0938C53.1766 36.0938 51.4279 35.3695 50.1386 34.0802C48.8493 32.7908 48.125 31.0422 48.125 29.2188C48.1246 28.0701 48.4155 26.94 48.9706 25.9343L46.1708 14.7383L49.5 13.9064L52.4752 25.8105C52.5354 26.052 52.5425 26.3038 52.4959 26.5483C52.4493 26.7928 52.3502 27.0243 52.2053 27.2268C51.835 27.7401 51.6136 28.3457 51.5655 28.9769C51.5175 29.608 51.6446 30.2401 51.9329 30.8036C52.2212 31.3671 52.6595 31.8401 53.1995 32.1703C53.7395 32.5006 54.3602 32.6754 54.9931 32.6754C55.6261 32.6754 56.2468 32.5006 56.7867 32.1703C57.3267 31.8401 57.765 31.3671 58.0533 30.8036C58.3416 30.2401 58.4688 29.608 58.4207 28.9769C58.3726 28.3457 58.1512 27.7401 57.7809 27.2268C57.6361 27.0243 57.5369 26.7928 57.4903 26.5483C57.4437 26.3038 57.4508 26.052 57.5111 25.8105L60.6375 13.3341L63.9719 14.166L61.0294 25.9343C61.5844 26.94 61.8754 28.0701 61.875 29.2188C61.875 31.0422 61.1507 32.7908 59.8614 34.0802C58.572 35.3695 56.8234 36.0938 55 36.0938Z" fill="white"/>
<path d="M77.3438 82.5H60.1562V89.375H77.3438V82.5Z" fill="#A31616"/>
<path d="M49.8438 46.4062H37.8125V49.8438H49.8438V46.4062Z" fill="#A31616"/>
<path d="M56.7188 46.4062H53.2812V49.8438H56.7188V46.4062Z" fill="#A31616"/>
<path d="M75.625 46.4062H60.1562V49.8438H75.625V46.4062Z" fill="#A31616"/>
<path d="M80.7812 24.0625H67.0312V37.8125H80.7812V24.0625Z" fill="#A31616"/>
<path d="M75.625 55H32.6562V58.4375H75.625V55Z" fill="#A31616"/>
<path d="M75.625 63.5938H32.6562V67.0312H75.625V63.5938Z" fill="#A31616"/>
<path d="M55 72.1875H32.6562V75.625H55V72.1875Z" fill="#A31616"/>
<path d="M67.0312 5.15625H42.9688V15.4688H67.0312V5.15625Z" fill="white"/>
<path d="M94.5312 3.4375H15.4688C15.0129 3.4375 14.5757 3.61858 14.2534 3.94091C13.9311 4.26324 13.75 4.70041 13.75 5.15625V104.844C13.75 105.3 13.9311 105.737 14.2534 106.059C14.5757 106.381 15.0129 106.562 15.4688 106.562H94.5312C94.9871 106.562 95.4243 106.381 95.7466 106.059C96.0689 105.737 96.25 105.3 96.25 104.844V5.15625C96.25 4.70041 96.0689 4.26324 95.7466 3.94091C95.4243 3.61858 94.9871 3.4375 94.5312 3.4375ZM42.9688 17.1875H46.7827L48.9706 25.9342C48.4155 26.9399 48.1246 28.07 48.125 29.2188C48.125 31.0421 48.8493 32.7908 50.1386 34.0801C51.428 35.3694 53.1766 36.0938 55 36.0938C56.8234 36.0938 58.572 35.3694 59.8614 34.0801C61.1507 32.7908 61.875 31.0421 61.875 29.2188C61.8754 28.07 61.5845 26.9399 61.0294 25.9342L63.2173 17.1875H67.0312C67.4871 17.1875 67.9243 17.0064 68.2466 16.6841C68.5689 16.3618 68.75 15.9246 68.75 15.4688V13.75H85.9375V96.25H24.0625V13.75H41.25V15.4688C41.25 15.9246 41.4311 16.3618 41.7534 16.6841C42.0757 17.0064 42.5129 17.1875 42.9688 17.1875ZM57.7878 27.2267C58.1581 27.7401 58.3795 28.3457 58.4276 28.9768C58.4756 29.6079 58.3485 30.2401 58.0602 30.8036C57.7719 31.3671 57.3336 31.84 56.7936 32.1703C56.2536 32.5005 55.633 32.6753 55 32.6753C54.367 32.6753 53.7464 32.5005 53.2064 32.1703C52.6664 31.84 52.2281 31.3671 51.9398 30.8036C51.6515 30.2401 51.5244 29.6079 51.5724 28.9768C51.6205 28.3457 51.8419 27.7401 52.2122 27.2267C52.357 27.0243 52.4562 26.7928 52.5028 26.5483C52.5494 26.3037 52.5423 26.052 52.482 25.8105L50.3267 17.1875H59.6733L57.518 25.8105C57.4577 26.052 57.4506 26.3037 57.4972 26.5483C57.5438 26.7928 57.643 27.0243 57.7878 27.2267ZM65.3125 13.75H44.6875V6.875H65.3125V13.75ZM92.8125 103.125H17.1875V6.875H41.25V10.3125H22.3438C21.8879 10.3125 21.4507 10.4936 21.1284 10.8159C20.8061 11.1382 20.625 11.5754 20.625 12.0312V97.9688C20.625 98.4246 20.8061 98.8618 21.1284 99.1841C21.4507 99.5064 21.8879 99.6875 22.3438 99.6875H87.6562C88.1121 99.6875 88.5493 99.5064 88.8716 99.1841C89.1939 98.8618 89.375 98.4246 89.375 97.9688V12.0312C89.375 11.5754 89.1939 11.1382 88.8716 10.8159C88.5493 10.4936 88.1121 10.3125 87.6562 10.3125H68.75V6.875H92.8125V103.125Z" fill="black"/>
</svg>
