<svg width="124" height="110" viewBox="0 0 124 110" fill="none" xmlns="http://www.w3.org/2000/svg">
<path d="M47.4588 70.4012H45.8441L46.9859 69.3548C49.8763 66.7045 49.8763 62.3927 46.9859 59.7429C46.9767 59.7347 46.9675 59.7266 46.9584 59.7181C44.0644 57.0924 39.3793 57.1008 36.4959 59.7426L35.3544 60.7887V59.3097C35.3544 55.5619 32.027 52.5126 27.9373 52.5126C23.8473 52.5126 20.5199 55.5616 20.5199 59.3097V60.7885L19.3786 59.7424C16.4866 57.0931 11.7812 57.0936 8.88948 59.7429C5.99827 62.3929 5.998 66.7053 8.88948 69.3556L10.0305 70.4014H8.41656C4.32714 70.4012 1 73.4505 1 77.1983C1 80.9462 4.32714 83.9954 8.4171 83.9954H10.031L8.88948 85.0416C5.998 87.6913 5.998 92.0034 8.88921 94.6537C8.90001 94.6636 8.91107 94.6735 8.92214 94.6834C11.816 97.3033 16.4974 97.2941 19.3792 94.6542L20.5202 93.6086V95.0876C20.5202 98.8352 23.8479 101.884 27.9378 101.884C32.0272 101.884 35.3544 98.8355 35.3544 95.0876V93.6084L36.4959 94.6545C39.3882 97.304 44.0939 97.3038 46.9853 94.6537C49.8768 92.0037 49.8768 87.6916 46.9853 85.0416L45.8435 83.9954H47.4585C51.5479 83.9954 54.8751 80.9461 54.8751 77.1981C54.8754 73.4502 51.5485 70.4012 47.4588 70.4012ZM47.4588 79.5428H43.1159C42.0659 79.5428 41.1346 80.161 40.8075 81.0755C40.5969 81.6638 40.3351 82.2426 40.0293 82.7962C39.5547 83.6551 39.7364 84.6957 40.479 85.3762L43.55 88.1903C44.5473 89.1043 44.5473 90.5917 43.55 91.5057C42.5523 92.4198 40.929 92.4198 39.9316 91.5057L36.8611 88.6917C36.1185 88.0114 34.9838 87.845 34.0468 88.2793C33.4417 88.5598 32.8098 88.7998 32.1681 88.9927C31.1705 89.2928 30.4962 90.146 30.4962 91.1082V95.0879C30.4962 96.3806 29.3485 97.4321 27.9378 97.4321C26.5269 97.4321 25.3792 96.3806 25.3792 95.0879V91.108C25.3792 90.146 24.7051 89.293 23.708 88.9927C23.0653 88.7993 22.4332 88.5594 21.8291 88.2791C21.4808 88.1178 21.1056 88.0394 20.7331 88.0394C20.1031 88.0394 19.4812 88.2638 19.0148 88.6915L15.9443 91.5052C14.9467 92.4193 13.3233 92.4198 12.3259 91.5055C12.3197 91.5001 12.3138 91.4944 12.3076 91.4889C11.3283 90.5732 11.3342 89.0984 12.3254 88.19L15.3967 85.3753C16.1392 84.6945 16.3206 83.6533 15.8458 82.7947C15.5421 82.2451 15.28 81.666 15.0676 81.0738C14.7399 80.1603 13.8092 79.5428 12.7597 79.5428H8.4171C7.00646 79.5428 5.85872 78.4908 5.85872 77.1981C5.85872 75.9053 7.00619 74.8538 8.4171 74.8538H12.7597C13.8087 74.8538 14.7391 74.2368 15.0673 73.3236C15.2798 72.7321 15.5419 72.1528 15.8466 71.6011C16.3206 70.7425 16.1392 69.7019 15.3969 69.0216L12.3262 66.2071C11.3286 65.2928 11.3286 63.8049 12.3259 62.8909C13.3236 61.9776 14.9464 61.9771 15.9438 62.8909L19.015 65.7057C19.7576 66.3862 20.8932 66.5526 21.8304 66.1175C22.4313 65.8387 23.0632 65.5988 23.7086 65.4044C24.7054 65.1041 25.3792 64.2511 25.3792 63.2894V59.3092C25.3792 58.0165 26.5272 56.9647 27.9381 56.9647C29.3485 56.9647 30.4959 58.0165 30.4959 59.3092V63.2889C30.4959 64.2506 31.1697 65.1036 32.1665 65.4039C32.8098 65.5976 33.4419 65.838 34.0452 66.1178C34.9819 66.5519 36.1175 66.3864 36.86 65.7057L39.9316 62.8909C40.9295 61.9771 42.5523 61.9766 43.5494 62.8904C43.5545 62.8953 43.5597 62.8998 43.5648 62.9045C44.5471 63.8197 44.5422 65.2973 43.55 66.2066L40.479 69.0211C39.7364 69.7019 39.5553 70.7425 40.0295 71.6011C40.3343 72.1528 40.5964 72.7321 40.8083 73.3228C41.136 74.2363 42.0667 74.8538 43.1162 74.8538H47.4591C48.8694 74.8538 50.0169 75.9056 50.0169 77.1986C50.0166 78.491 48.8692 79.5428 47.4588 79.5428ZM102.748 58.3576C101.406 58.3576 100.319 57.361 100.319 56.1313V30.5593C100.319 29.5394 99.4133 28.7098 98.3007 28.7098H93.8528C92.511 28.7098 91.4234 27.7131 91.4234 26.4835C91.4234 25.2538 92.511 24.2572 93.8528 24.2572H98.3007C102.092 24.2572 105.177 27.0843 105.177 30.5593V56.1313C105.177 57.361 104.09 58.3576 102.748 58.3576ZM27.9381 69.8396C23.5102 69.8396 19.9077 73.141 19.9077 77.1988C19.9077 81.2564 23.5102 84.5577 27.9381 84.5577C32.366 84.5577 35.9682 81.2564 35.9682 77.1988C35.9682 73.141 32.366 69.8396 27.9381 69.8396ZM27.9381 80.1051C26.1892 80.1051 24.7664 78.8012 24.7664 77.1988C24.7664 75.5964 26.1892 74.2922 27.9381 74.2922C29.687 74.2922 31.1095 75.5961 31.1095 77.1988C31.1095 78.8015 29.6867 80.1051 27.9381 80.1051ZM81.4331 1H66.0094C64.6676 1 63.58 1.99664 63.58 3.2263V96.9023C63.58 98.1319 64.6676 99.1286 66.0094 99.1286H81.4331C82.7749 99.1286 83.8625 98.1319 83.8625 96.9023V3.2263C83.8625 1.99664 82.7749 1 81.4331 1ZM79.0038 94.676H68.4387V83.5155H71.7116C73.0534 83.5155 74.141 82.5189 74.141 81.2893C74.141 80.0596 73.0534 79.063 71.7116 79.063H68.4387V67.903H71.7116C73.0534 67.903 74.141 66.9064 74.141 65.6767C74.141 64.4471 73.0534 63.4504 71.7116 63.4504H68.4387V52.2907H71.7116C73.0534 52.2907 74.141 51.2941 74.141 50.0644C74.141 48.8348 73.0534 47.8381 71.7116 47.8381H68.4387V36.6782H71.7116C73.0534 36.6782 74.141 35.6815 74.141 34.4519C74.141 33.2222 73.0534 32.2256 71.7116 32.2256H68.4387V21.0654H71.7116C73.0534 21.0654 74.141 20.0687 74.141 18.8391C74.141 17.6094 73.0534 16.6128 71.7116 16.6128H68.4387V5.4526H79.0038V94.676ZM123 10.0368V90.0913C123 91.321 121.912 92.3176 120.571 92.3176H106.495C105.154 92.3176 104.066 91.321 104.066 90.0913C104.066 88.8616 105.154 87.865 106.495 87.865H118.141V12.2631H92.7356C91.3938 12.2631 90.3062 11.2665 90.3062 10.0368C90.3062 8.80714 91.3938 7.8105 92.7356 7.8105H120.571C121.912 7.8105 123 8.80738 123 10.0368ZM96.2822 106.379V106.774C96.2822 108.003 95.1946 109 93.8528 109C92.511 109 91.4234 108.003 91.4234 106.774V106.379C91.4234 105.149 92.511 104.153 93.8528 104.153C95.1946 104.153 96.2822 105.149 96.2822 106.379ZM96.2822 34.6144V99.1652C96.2822 100.395 95.1946 101.392 93.8528 101.392C92.511 101.392 91.4234 100.395 91.4234 99.1652V34.6144C91.4234 33.3847 92.511 32.3881 93.8528 32.3881C95.1946 32.3881 96.2822 33.3847 96.2822 34.6144ZM55.4824 7.8105C55.4824 7.8105 33.9127 7.81124 33.8633 7.81371C33.3224 7.83944 32.8284 8.02719 32.4378 8.32502L32.4364 8.32601L32.4329 8.32873L32.4297 8.3312L32.4281 8.33244C32.4281 8.33244 32.4251 8.33491 32.4235 8.33615C32.3719 8.37598 10.529 28.3897 10.529 28.3897C10.1098 28.7728 9.8426 29.2953 9.81696 29.8751C9.81534 29.911 9.81507 48.5582 9.81507 48.5582C9.81507 49.7879 10.9026 50.7845 12.2444 50.7845C13.5862 50.7845 14.6738 49.7879 14.6738 48.5582V32.1924H33.9912C35.3331 32.1924 36.4206 31.1958 36.4206 29.9661V12.2631H55.4824C56.8242 12.2631 57.9118 11.2665 57.9118 10.0368C57.9118 8.80714 56.8242 7.8105 55.4824 7.8105ZM31.5621 27.7398H18.1097L31.5621 15.4116V27.7398Z" fill="black" stroke="black" stroke-width="0.00256001"/>
</svg>
