<svg width="100" height="93" viewBox="0 0 100 93" fill="none" xmlns="http://www.w3.org/2000/svg">
<path d="M9.77894 47.5986H33.8423C34.1272 49.2466 35.0334 50.7465 36.3988 51.8296C37.7642 52.9127 39.4996 53.5084 41.2941 53.5098H58.6149C60.4094 53.5084 62.1447 52.9127 63.5101 51.8296C64.8755 50.7465 65.7818 49.2466 66.0666 47.5986H90.13C92.7227 47.5962 95.2085 46.6371 97.0419 44.9318C98.8752 43.2265 99.9063 40.9143 99.9089 38.5027V27.954C99.9022 25.6369 98.9437 23.4099 97.2295 21.7287C95.5154 20.0475 93.1752 19.0392 90.688 18.9103C90.3968 17.2669 89.4885 15.7729 88.1245 14.6939C86.7605 13.6148 85.0293 13.0207 83.2387 13.0171H65.918C64.1383 13.0227 62.4176 13.6112 61.058 14.6794C59.6985 15.7475 58.7868 17.227 58.4833 18.8581H43.1314V15.8481C43.1343 15.5731 43.0296 15.3065 42.8369 15.098C42.6441 14.8895 42.3764 14.7533 42.0836 14.7148L37.0955 14.0597L40.1244 10.3199C40.3011 10.1019 40.3874 9.83197 40.3672 9.55964C40.3471 9.2873 40.2219 9.03088 40.0148 8.83751L33.6084 2.89903C33.4008 2.70601 33.1253 2.58919 32.8325 2.57003C32.5397 2.55088 32.2493 2.63068 32.0147 2.79477L27.9916 5.61441L27.2922 0.97469C27.2508 0.702385 27.1044 0.453366 26.8803 0.274048C26.6561 0.0947294 26.3695 -0.00265163 26.0738 5.49382e-05H17.0382C16.7425 -0.00265163 16.4559 0.0947294 16.2317 0.274048C16.0076 0.453366 15.8611 0.702385 15.8198 0.97469L15.1155 5.61441L11.107 2.79477C10.8724 2.63068 10.582 2.55088 10.2892 2.57003C9.99643 2.58919 9.72091 2.70601 9.51333 2.89903L3.11673 8.83978C2.90922 9.03286 2.78362 9.28914 2.76302 9.56148C2.74243 9.83382 2.82822 10.1039 3.00463 10.3221L6.03602 14.062L1.04788 14.7329C0.75513 14.7714 0.487411 14.9076 0.294627 15.1161C0.101843 15.3246 -0.00285075 15.5912 5.90636e-05 15.8662V24.2526C0.000103539 24.5257 0.106134 24.7895 0.298648 24.9957C0.491163 25.2018 0.757217 25.3364 1.04788 25.3746L6.03602 26.0274L3.00463 29.7786C2.82822 29.9968 2.74243 30.2669 2.76302 30.5392C2.78362 30.8116 2.90922 31.0678 3.11673 31.2609L9.50358 37.2107C9.71117 37.4038 9.98669 37.5206 10.2795 37.5397C10.5723 37.5589 10.8627 37.4791 11.0972 37.315L15.118 34.4976L15.8393 39.1351C15.8806 39.4074 16.0271 39.6564 16.2512 39.8357C16.4754 40.015 16.762 40.1124 17.0577 40.1097H26.0738C26.3674 40.1097 26.6511 40.0111 26.8727 39.832C27.0943 39.6529 27.2389 39.4055 27.28 39.1351L27.9818 34.4954L32.005 37.315C32.2396 37.4791 32.53 37.5589 32.8228 37.5397C33.1156 37.5206 33.3911 37.4038 33.5987 37.2107L39.9953 31.2609C40.2024 31.0676 40.3276 30.8111 40.3477 30.5388C40.3679 30.2665 40.2817 29.9965 40.1049 29.7786L37.076 26.0364L42.0641 25.3837C42.3548 25.3454 42.6208 25.2109 42.8134 25.0047C43.0059 24.7986 43.1119 24.5347 43.1119 24.2617V21.1247H58.4589C58.7292 22.7855 59.6302 24.3013 60.9985 25.3973C62.3669 26.4934 64.1121 27.0973 65.918 27.0995H83.2387C85.035 27.0976 86.7718 26.5003 88.1375 25.4149C89.5031 24.3295 90.4083 22.8269 90.6905 21.1769C92.5304 21.3052 94.2506 22.0743 95.5076 23.3305C96.7647 24.5868 97.4662 26.2378 97.4721 27.954V38.5027C97.4695 40.3132 96.6951 42.0489 95.3188 43.3291C93.9424 44.6093 92.0765 45.3296 90.13 45.332H66.0666C65.7818 43.6839 64.8755 42.184 63.5101 41.1009C62.1447 40.0178 60.4094 39.4221 58.6149 39.4207H41.2941C39.4996 39.4221 37.7642 40.0178 36.3988 41.1009C35.0334 42.184 34.1272 43.6839 33.8423 45.332H9.77894C7.18621 45.3344 4.70041 46.2934 2.86708 47.9987C1.03374 49.704 0.00263954 52.0162 5.90636e-05 54.4278V64.9765C0.00676735 67.2936 0.96529 69.5206 2.67944 71.2018C4.39359 72.883 6.73374 73.8913 9.22091 74.0203C9.51213 75.6636 10.4205 77.1576 11.7845 78.2367C13.1484 79.3157 14.8796 79.9098 16.6702 79.9134H33.991C35.7706 79.9078 37.4913 79.3193 38.8509 78.2511C40.2105 77.183 41.1221 75.7035 41.4257 74.0724H56.3925C56.7778 79.347 59.3598 84.2739 63.5896 87.8055C67.8193 91.3371 73.3631 93.1948 79.0424 92.9838C84.7217 92.7728 90.0886 90.5096 94.002 86.6755C97.9153 82.8414 100.067 77.7386 99.9984 72.4522C99.9302 67.1658 97.6479 62.1125 93.6367 58.3668C89.6255 54.6212 84.2019 52.4784 78.5188 52.3943C72.8356 52.3101 67.3413 54.291 63.204 57.916C59.0666 61.541 56.6124 66.524 56.3633 71.8058H41.45C41.1798 70.145 40.2788 68.6293 38.9104 67.5332C37.542 66.4371 35.7968 65.8333 33.991 65.831H16.6702C14.8739 65.8329 13.1371 66.4302 11.7715 67.5156C10.4058 68.601 9.50067 70.1036 9.21848 71.7537C7.37857 71.6253 5.65838 70.8562 4.4013 69.6C3.14422 68.3437 2.44273 66.6927 2.43686 64.9765V54.4278C2.43944 52.6173 3.2138 50.8817 4.59015 49.6014C5.9665 48.3212 7.83249 47.601 9.77894 47.5986ZM21.5609 28.1466C19.8403 28.1466 18.1584 27.6721 16.7278 26.7829C15.2972 25.8938 14.1821 24.63 13.5237 23.1515C12.8653 21.6729 12.693 20.0459 13.0287 18.4763C13.3643 16.9066 14.1929 15.4648 15.4095 14.3332C16.6261 13.2015 18.1762 12.4308 19.8637 12.1186C21.5512 11.8064 23.3004 11.9666 24.89 12.5791C26.4796 13.1915 27.8382 14.2287 28.7941 15.5594C29.75 16.89 30.2602 18.4545 30.2602 20.0549C30.2577 22.2002 29.3403 24.257 27.7094 25.774C26.0785 27.2909 23.8673 28.1442 21.5609 28.1466Z" fill="black"/>
<path d="M83.2387 24.8329H65.918C64.5556 24.8329 63.249 24.3295 62.2857 23.4335C61.3224 22.5375 60.7812 21.3222 60.7812 20.055C60.7812 18.7878 61.3224 17.5725 62.2857 16.6764C63.249 15.7804 64.5556 15.277 65.918 15.277H83.2387C84.6011 15.277 85.9077 15.7804 86.871 16.6764C87.8343 17.5725 88.3755 18.7878 88.3755 20.055C88.3755 21.3222 87.8343 22.5375 86.871 23.4335C85.9077 24.3295 84.6011 24.8329 83.2387 24.8329Z" fill="#E52A2A"/>
<path d="M41.2941 41.6873H58.6149C59.9626 41.6889 61.2556 42.1831 62.2151 43.0633C63.1747 43.9436 63.7239 45.1393 63.7443 46.3927C63.7443 46.4176 63.7297 46.4403 63.7297 46.4652C63.7297 46.4902 63.7443 46.5128 63.7443 46.5378C63.7239 47.7912 63.1747 48.9869 62.2151 49.8671C61.2556 50.7474 59.9626 51.2416 58.6149 51.2432H41.2941C39.9464 51.2416 38.6534 50.7474 37.6938 49.8671C36.7343 48.9869 36.1851 47.7912 36.1646 46.5378C36.1646 46.5128 36.1792 46.4902 36.1792 46.4652C36.1792 46.4403 36.1646 46.4176 36.1646 46.3927C36.1851 45.1393 36.7343 43.9436 37.6938 43.0633C38.6534 42.1831 39.9464 41.6889 41.2941 41.6873Z" fill="#E52A2A"/>
<path d="M16.6702 68.0977H33.991C35.3533 68.0977 36.6599 68.6011 37.6232 69.4971C38.5866 70.3931 39.1278 71.6084 39.1278 72.8756C39.1278 74.1428 38.5866 75.3581 37.6232 76.2542C36.6599 77.1502 35.3533 77.6536 33.991 77.6536H16.6702C15.3078 77.6536 14.0013 77.1502 13.038 76.2542C12.0746 75.3581 11.5334 74.1428 11.5334 72.8756C11.5334 71.6084 12.0746 70.3931 13.038 69.4971C14.0013 68.6011 15.3078 68.0977 16.6702 68.0977Z" fill="#E52A2A"/>
<path d="M43.8186 47.6031C44.4942 47.6031 45.0419 47.0936 45.0419 46.4652C45.0419 45.8368 44.4942 45.3274 43.8186 45.3274C43.143 45.3274 42.5953 45.8368 42.5953 46.4652C42.5953 47.0936 43.143 47.6031 43.8186 47.6031Z" fill="black"/>
<path d="M50.013 47.6031C50.6886 47.6031 51.2362 47.0936 51.2362 46.4652C51.2362 45.8368 50.6886 45.3274 50.013 45.3274C49.3374 45.3274 48.7897 45.8368 48.7897 46.4652C48.7897 47.0936 49.3374 47.6031 50.013 47.6031Z" fill="black"/>
<path d="M56.0903 47.6031C56.7659 47.6031 57.3136 47.0936 57.3136 46.4652C57.3136 45.8368 56.7659 45.3274 56.0903 45.3274C55.4147 45.3274 54.8671 45.8368 54.8671 46.4652C54.8671 47.0936 55.4147 47.6031 56.0903 47.6031Z" fill="black"/>
<path d="M68.4425 21.1928C69.1181 21.1928 69.6658 20.6834 69.6658 20.0549C69.6658 19.4265 69.1181 18.9171 68.4425 18.9171C67.7669 18.9171 67.2192 19.4265 67.2192 20.0549C67.2192 20.6834 67.7669 21.1928 68.4425 21.1928Z" fill="black"/>
<path d="M74.6368 21.1928C75.3124 21.1928 75.8601 20.6834 75.8601 20.0549C75.8601 19.4265 75.3124 18.9171 74.6368 18.9171C73.9612 18.9171 73.4135 19.4265 73.4135 20.0549C73.4135 20.6834 73.9612 21.1928 74.6368 21.1928Z" fill="black"/>
<path d="M80.7118 21.1928C81.3874 21.1928 81.935 20.6834 81.935 20.0549C81.935 19.4265 81.3874 18.9171 80.7118 18.9171C80.0362 18.9171 79.4885 19.4265 79.4885 20.0549C79.4885 20.6834 80.0362 21.1928 80.7118 21.1928Z" fill="black"/>
<path d="M31.4665 74.0134C32.1421 74.0134 32.6898 73.504 32.6898 72.8756C32.6898 72.2472 32.1421 71.7378 31.4665 71.7378C30.7909 71.7378 30.2432 72.2472 30.2432 72.8756C30.2432 73.504 30.7909 74.0134 31.4665 74.0134Z" fill="black"/>
<path d="M25.2721 74.0134C25.9477 74.0134 26.4954 73.504 26.4954 72.8756C26.4954 72.2472 25.9477 71.7378 25.2721 71.7378C24.5965 71.7378 24.0488 72.2472 24.0488 72.8756C24.0488 73.504 24.5965 74.0134 25.2721 74.0134Z" fill="black"/>
<path d="M19.1972 74.0134C19.8727 74.0134 20.4204 73.504 20.4204 72.8756C20.4204 72.2472 19.8727 71.7378 19.1972 71.7378C18.5216 71.7378 17.9739 72.2472 17.9739 72.8756C17.9739 73.504 18.5216 74.0134 19.1972 74.0134Z" fill="black"/>
<path d="M78.1166 54.6589C81.9449 54.6585 85.6875 55.7141 88.8708 57.6921C92.0542 59.6702 94.5354 62.482 96.0007 65.7718C97.466 69.0616 97.8495 72.6817 97.1027 76.1743C96.356 79.6668 94.5125 82.875 91.8054 85.3929C89.0983 87.9109 85.6493 89.6256 81.8945 90.3202C78.1396 91.0148 74.2477 90.6581 70.7108 89.2952C67.174 87.9323 64.1511 85.6244 62.0245 82.6633C59.8978 79.7023 58.763 76.2212 58.7635 72.6602C58.7699 67.8878 60.811 63.3126 64.439 59.938C68.067 56.5634 72.9858 54.6649 78.1166 54.6589Z" fill="white"/>
<path d="M34.7001 24.06L40.6946 23.2781V16.8341L34.7099 16.0499C34.4982 16.0234 34.2977 15.9456 34.1285 15.8244C33.9593 15.7031 33.8273 15.5425 33.7459 15.3589C33.6644 15.1752 33.6363 14.9748 33.6644 14.7778C33.6924 14.5809 33.7756 14.3942 33.9057 14.2366L37.5268 9.74649L32.6288 5.18836L27.8064 8.58146C27.637 8.70244 27.4363 8.77987 27.2245 8.80597C27.0128 8.83206 26.7974 8.80592 26.5999 8.73015C26.4024 8.65438 26.2298 8.53166 26.0994 8.37428C25.969 8.2169 25.8854 8.0304 25.857 7.83348L25.026 2.26672H18.0958L17.2551 7.83348C17.2266 8.0304 17.143 8.2169 17.0126 8.37428C16.8822 8.53166 16.7096 8.65438 16.5121 8.73015C16.3147 8.80592 16.0992 8.83206 15.8875 8.80597C15.6757 8.77987 15.4751 8.70244 15.3056 8.58146L10.4783 5.19743L5.58766 9.74649L9.2258 14.2366C9.35587 14.3942 9.43911 14.5809 9.46717 14.7778C9.49523 14.9748 9.46712 15.1752 9.38566 15.3589C9.3042 15.5425 9.17226 15.7031 9.00306 15.8244C8.83387 15.9456 8.63336 16.0234 8.42166 16.0499L2.43687 16.8341V23.2781L8.42166 24.06C8.63336 24.0865 8.83387 24.1643 9.00306 24.2856C9.17226 24.4069 9.3042 24.5674 9.38566 24.7511C9.46712 24.9347 9.49523 25.1351 9.46717 25.3321C9.43911 25.5291 9.35587 25.7157 9.2258 25.8733L5.58766 30.3544L10.4783 34.9057L15.3056 31.5217C15.4751 31.4007 15.6757 31.3233 15.8875 31.2972C16.0992 31.2711 16.3147 31.2972 16.5121 31.373C16.7096 31.4487 16.8822 31.5715 17.0126 31.7288C17.143 31.8862 17.2266 32.0727 17.2551 32.2696L18.0958 37.8364H25.026L25.8667 32.2696C25.8952 32.0727 25.9788 31.8862 26.1092 31.7288C26.2396 31.5715 26.4122 31.4487 26.6096 31.373C26.8071 31.2972 27.0225 31.2711 27.2343 31.2972C27.446 31.3233 27.6467 31.4007 27.8162 31.5217L32.6337 34.9057L37.5317 30.3476L33.896 25.8642C33.7659 25.7066 33.6827 25.52 33.6546 25.323C33.6265 25.126 33.6547 24.9257 33.7361 24.742C33.8176 24.5583 33.9495 24.3978 34.1187 24.2765C34.2879 24.1552 34.4884 24.0774 34.7001 24.051V24.06ZM21.5609 28.1399C19.8403 28.1399 18.1584 27.6653 16.7278 26.7762C15.2972 25.8871 14.1821 24.6233 13.5237 23.1447C12.8653 21.6662 12.693 20.0392 13.0287 18.4695C13.3643 16.8999 14.1929 15.4581 15.4095 14.3264C16.6261 13.1948 18.1762 12.4241 19.8637 12.1119C21.5512 11.7997 23.3004 11.9599 24.89 12.5724C26.4796 13.1848 27.8383 14.2219 28.7942 15.5526C29.7501 16.8833 30.2603 18.4478 30.2603 20.0482C30.2596 22.1947 29.3431 24.2532 27.712 25.7716C26.0809 27.2901 23.8686 28.1443 21.5609 28.1467V28.1399Z" fill="black"/>
<path d="M21.5609 9.69653C19.3584 9.69653 17.2053 10.304 15.374 11.4422C13.5426 12.5804 12.1153 14.1982 11.2724 16.0909C10.4295 17.9836 10.209 20.0664 10.6387 22.0757C11.0684 24.085 12.129 25.9307 13.6864 27.3793C15.2438 28.828 17.2281 29.8145 19.3883 30.2142C21.5485 30.6139 23.7876 30.4087 25.8225 29.6247C27.8574 28.8407 29.5966 27.5131 30.8203 25.8097C32.0439 24.1062 32.6971 22.1036 32.6971 20.0549C32.6938 17.3086 31.5195 14.6757 29.4318 12.7337C27.344 10.7918 24.5134 9.69953 21.5609 9.69653ZM21.5609 28.1466C19.8403 28.1466 18.1584 27.672 16.7278 26.7829C15.2972 25.8938 14.1821 24.63 13.5237 23.1515C12.8653 21.6729 12.693 20.0459 13.0287 18.4763C13.3643 16.9066 14.1929 15.4648 15.4095 14.3331C16.6261 13.2015 18.1762 12.4308 19.8637 12.1186C21.5512 11.8064 23.3004 11.9666 24.89 12.5791C26.4796 13.1915 27.8383 14.2287 28.7942 15.5593C29.7501 16.89 30.2603 18.4545 30.2603 20.0549C30.2577 22.2002 29.3403 24.257 27.7094 25.7739C26.0785 27.2909 23.8673 28.1442 21.5609 28.1466Z" fill="black"/>
<path d="M76.1525 77.6605C76.381 77.873 76.6909 77.9923 77.0139 77.9923C77.337 77.9923 77.6469 77.873 77.8753 77.6605L87.9247 68.3131C88.1466 68.0993 88.2695 67.8131 88.2667 67.5159C88.2639 67.2188 88.1358 66.9345 87.9099 66.7244C87.684 66.5143 87.3784 66.3951 87.0589 66.3925C86.7394 66.3899 86.4317 66.5041 86.2019 66.7106L77.003 75.2511L72.5485 71.1032C72.3187 70.8968 72.0109 70.7826 71.6915 70.7852C71.372 70.7877 71.0664 70.9069 70.8405 71.1171C70.6146 71.3272 70.4865 71.6114 70.4837 71.9086C70.4809 72.2057 70.6037 72.492 70.8257 72.7057L76.1525 77.6605Z" fill="black"/>
</svg>
