<svg width="36" height="37" viewBox="0 0 36 37" fill="none" xmlns="http://www.w3.org/2000/svg">
<path d="M30.1475 0H5.58287C2.49953 0 0 2.58835 0 5.78125V31.2188C0 34.4116 2.49953 37 5.58287 37H30.1475C33.2308 37 35.7303 34.4116 35.7303 31.2188V5.78125C35.7303 2.58835 33.2308 0 30.1475 0Z" fill="#25D366"/>
<path fill-rule="evenodd" clip-rule="evenodd" d="M24.118 11.9094C22.4432 10.175 20.21 9.25 17.8652 9.25C12.9523 9.25 8.93262 13.4125 8.93262 18.5C8.93262 20.1187 9.37925 21.7375 10.1609 23.125L8.93262 27.75L13.6222 26.4781C14.9621 27.1719 16.4137 27.6344 17.8652 27.6344C22.7781 27.6344 26.7978 23.4719 26.7978 18.3844C26.7978 15.9562 25.7929 13.6438 24.118 11.9094ZM17.8652 26.1313C16.5253 26.1313 15.1854 25.7844 14.0689 25.0906L13.8455 24.975L11.0541 25.7844L11.8357 23.0094L11.6124 22.6625C10.8308 21.3906 10.4958 20.0031 10.4958 18.6156C10.4958 14.4531 13.8455 10.9844 17.8652 10.9844C19.875 10.9844 21.6616 11.7937 23.1131 13.1812C24.5647 14.6844 25.2346 16.5344 25.2346 18.6156C25.2346 22.6625 21.9965 26.1313 17.8652 26.1313ZM21.8849 20.35C21.6616 20.2344 20.545 19.6562 20.3217 19.6562C20.0984 19.5406 19.9867 19.5406 19.875 19.7719C19.7634 20.0031 19.3168 20.4656 19.2051 20.6969C19.0934 20.8125 18.9818 20.8125 18.7584 20.8125C18.5351 20.6969 17.8652 20.4656 16.972 19.6562C16.302 19.0781 15.8554 18.2688 15.7437 18.0375C15.6321 17.8063 15.7437 17.6906 15.8554 17.575C15.967 17.4594 16.0787 17.3437 16.1903 17.2281C16.302 17.1125 16.302 16.9969 16.4137 16.8813C16.5253 16.7656 16.4137 16.65 16.4137 16.5344C16.4137 16.4188 15.967 15.2625 15.7437 14.8C15.6321 14.4531 15.4088 14.4531 15.2971 14.4531C15.1854 14.4531 15.0738 14.4531 14.8504 14.4531C14.7388 14.4531 14.5155 14.4531 14.2922 14.6844C14.0688 14.9156 13.5106 15.4937 13.5106 16.65C13.5106 17.8062 14.2922 18.8469 14.4038 19.0781C14.5155 19.1938 15.967 21.6219 18.2002 22.5469C20.0983 23.3562 20.4333 23.125 20.88 23.125C21.3266 23.125 22.2198 22.5469 22.3315 22.0844C22.5548 21.5063 22.5548 21.0438 22.4432 21.0438C22.3315 20.4656 22.1082 20.4656 21.8849 20.35Z" fill="white"/>
</svg>
